<svg width="29" height="43" viewBox="0 0 29 43" fill="none" xmlns="http://www.w3.org/2000/svg">
<path d="M7.5 2.0498H21.5C22.2824 2.0498 23.0327 2.36083 23.5859 2.91406C24.1392 3.46729 24.4502 4.21761 24.4502 5V7C24.4502 7.86722 24.0763 8.64762 23.4795 9.1875L23.4629 9.20312V19.9648C23.4629 20.482 23.2573 20.9781 22.8916 21.3438C22.5259 21.7094 22.0298 21.915 21.5127 21.915H13.873V21.9141L13.8633 21.916C13.7435 21.9386 13.6219 21.9502 13.5 21.9502H11.5C11.3781 21.9502 11.2565 21.9386 11.1367 21.916L11.1269 21.9648L11.1367 21.915H7.51074C6.99366 21.915 6.49747 21.7094 6.13183 21.3438C5.76627 20.9781 5.56054 20.4819 5.56054 19.9648V9.12402L5.50781 9.17578C5.21177 8.90516 4.97323 8.57706 4.80859 8.21094C4.63746 7.83026 4.54922 7.41738 4.5498 7V5C4.5498 4.21761 4.86083 3.46729 5.41406 2.91406C5.96729 2.36083 6.71761 2.04981 7.5 2.0498ZM17.4668 9.19922C16.9265 9.68379 16.2257 9.9512 15.5 9.9502H13.5C12.7448 9.95019 12.0543 9.66623 11.5332 9.19922L11.5 9.16895L11.4668 9.19922C10.9265 9.68379 10.2257 9.9512 9.5 9.9502H7.45996V20.0146H9.5498V15C9.5498 14.4828 9.75539 13.9868 10.1211 13.6211C10.4868 13.2554 10.9828 13.0498 11.5 13.0498H13.5C14.0172 13.0498 14.5132 13.2554 14.8789 13.6211C15.2446 13.9868 15.4502 14.4828 15.4502 15V20.0146H21.5635V9.9502H19.5C18.7448 9.95019 18.0543 9.66623 17.5332 9.19922L17.5 9.16895L17.4668 9.19922ZM11.4502 20.0146H13.5V19.9658H13.5498V14.9502H11.4502V20.0146ZM18.5 13.0498H19.5C19.752 13.0498 19.9937 13.15 20.1719 13.3281C20.35 13.5063 20.4502 13.748 20.4502 14V17C20.4502 17.252 20.35 17.4937 20.1719 17.6719C19.9937 17.85 19.752 17.9502 19.5 17.9502H18.5C18.248 17.9502 18.0063 17.85 17.8281 17.6719C17.65 17.4937 17.5498 17.252 17.5498 17V14C17.5498 13.748 17.65 13.5063 17.8281 13.3281C18.0063 13.15 18.248 13.0498 18.5 13.0498ZM7.5 3.9502C7.22152 3.9502 6.95472 4.0609 6.75781 4.25781C6.5609 4.45473 6.45019 4.72152 6.45019 5V7C6.45019 7.27848 6.5609 7.54527 6.75781 7.74219C6.95472 7.9391 7.22152 8.0498 7.5 8.0498H9.5C9.77847 8.0498 10.0453 7.9391 10.2422 7.74219C10.4391 7.54527 10.5498 7.27848 10.5498 7V3.9502H7.5ZM12.4502 7C12.4502 7.27848 12.5609 7.54527 12.7578 7.74219C12.9547 7.9391 13.2215 8.0498 13.5 8.0498H15.5C15.7785 8.0498 16.0453 7.9391 16.2422 7.74219C16.4391 7.54527 16.5498 7.27848 16.5498 7V3.9502H12.4502V7ZM18.4502 7C18.4502 7.27848 18.5609 7.54527 18.7578 7.74219C18.9547 7.9391 19.2215 8.0498 19.5 8.0498H21.5C21.7785 8.0498 22.0453 7.9391 22.2422 7.74219C22.4391 7.54527 22.5498 7.27848 22.5498 7V5C22.5498 4.72152 22.4391 4.45473 22.2422 4.25781C22.0453 4.0609 21.7785 3.9502 21.5 3.9502H18.4502V7Z" fill="#181725" stroke="white" stroke-width="0.1"/>
<path d="M3.8567 38.3245C3.0487 38.3245 2.3607 38.1445 1.7927 37.7845C1.2327 37.4165 0.840703 36.9085 0.616703 36.2605L1.8047 35.5645C2.1407 36.5085 2.8367 36.9805 3.8927 36.9805C4.4047 36.9805 4.7927 36.8805 5.0567 36.6805C5.3207 36.4805 5.4527 36.2125 5.4527 35.8765C5.4527 35.5405 5.3127 35.2805 5.0327 35.0965C4.7527 34.9125 4.2567 34.7125 3.5447 34.4965C2.8167 34.2805 2.2287 34.0245 1.7807 33.7285C1.2367 33.3445 0.964703 32.7805 0.964703 32.0365C0.964703 31.2925 1.2287 30.7045 1.7567 30.2725C2.2767 29.8325 2.9127 29.6125 3.6647 29.6125C4.3287 29.6125 4.9127 29.7765 5.4167 30.1045C5.9287 30.4245 6.3207 30.8765 6.5927 31.4605L5.4287 32.1325C5.0767 31.3485 4.4887 30.9565 3.6647 30.9565C3.2647 30.9565 2.9447 31.0525 2.7047 31.2445C2.4647 31.4285 2.3447 31.6805 2.3447 32.0005C2.3447 32.3125 2.4647 32.5605 2.7047 32.7445C2.9447 32.9205 3.3887 33.1085 4.0367 33.3085C4.4367 33.4445 4.6687 33.5245 4.7327 33.5485C4.8367 33.5805 5.0447 33.6605 5.3567 33.7885C5.6127 33.8925 5.8167 34.0045 5.9687 34.1245C6.5927 34.6125 6.8807 35.1885 6.8327 35.8525C6.8327 36.6125 6.5567 37.2165 6.0047 37.6645C5.4687 38.1045 4.7527 38.3245 3.8567 38.3245ZM11.1054 32.0125C11.8014 32.0125 12.3574 32.2365 12.7734 32.6845C13.1974 33.1245 13.4094 33.7245 13.4094 34.4845V38.1685H12.1134V34.6165C12.1134 34.1685 11.9934 33.8245 11.7534 33.5845C11.5134 33.3445 11.1854 33.2245 10.7694 33.2245C10.2974 33.2245 9.92536 33.3725 9.65336 33.6685C9.38136 33.9565 9.24536 34.3845 9.24536 34.9525V38.1685H7.94936V29.7685H9.24536V32.9365C9.64536 32.3205 10.2654 32.0125 11.1054 32.0125ZM19.8808 37.4125C19.2728 38.0205 18.5248 38.3245 17.6368 38.3245C16.7488 38.3245 16.0008 38.0205 15.3928 37.4125C14.7768 36.7965 14.4688 36.0485 14.4688 35.1685C14.4688 34.2885 14.7768 33.5405 15.3928 32.9245C16.0008 32.3165 16.7488 32.0125 17.6368 32.0125C18.5248 32.0125 19.2728 32.3165 19.8808 32.9245C20.4968 33.5405 20.8048 34.2885 20.8048 35.1685C20.8048 36.0485 20.4968 36.7965 19.8808 37.4125ZM15.7648 35.1685C15.7648 35.7125 15.9448 36.1645 16.3048 36.5245C16.6648 36.8845 17.1088 37.0645 17.6368 37.0645C18.1648 37.0645 18.6088 36.8845 18.9688 36.5245C19.3288 36.1645 19.5088 35.7125 19.5088 35.1685C19.5088 34.6245 19.3288 34.1725 18.9688 33.8125C18.6088 33.4525 18.1648 33.2725 17.6368 33.2725C17.1088 33.2725 16.6648 33.4525 16.3048 33.8125C15.9448 34.1725 15.7648 34.6245 15.7648 35.1685ZM25.3727 32.0125C26.1887 32.0125 26.8927 32.3205 27.4847 32.9365C28.0687 33.5445 28.3607 34.2885 28.3607 35.1685C28.3607 36.0565 28.0687 36.8045 27.4847 37.4125C26.9007 38.0205 26.1967 38.3245 25.3727 38.3245C24.4687 38.3245 23.7687 37.9885 23.2727 37.3165V40.5685H21.9767V32.1685H23.2727V33.0325C23.7607 32.3525 24.4607 32.0125 25.3727 32.0125ZM23.8127 36.5485C24.1727 36.9085 24.6247 37.0885 25.1687 37.0885C25.7127 37.0885 26.1647 36.9085 26.5247 36.5485C26.8847 36.1805 27.0647 35.7205 27.0647 35.1685C27.0647 34.6165 26.8847 34.1605 26.5247 33.8005C26.1647 33.4325 25.7127 33.2485 25.1687 33.2485C24.6247 33.2485 24.1727 33.4325 23.8127 33.8005C23.4527 34.1605 23.2727 34.6165 23.2727 35.1685C23.2727 35.7125 23.4527 36.1725 23.8127 36.5485Z" fill="#181725"/>
</svg>
