<svg width="26" height="40" viewBox="0 0 26 40" fill="none" xmlns="http://www.w3.org/2000/svg">
<path d="M5.25536 35.8874C3.99136 35.8874 2.94336 35.4714 2.11136 34.6394C1.27936 33.7914 0.863359 32.7554 0.863359 31.5314C0.863359 30.2994 1.27936 29.2674 2.11136 28.4354C2.93536 27.5954 3.98336 27.1754 5.25536 27.1754C6.01536 27.1754 6.71536 27.3554 7.35536 27.7154C8.00336 28.0754 8.50736 28.5634 8.86736 29.1794L7.66736 29.8754C7.44336 29.4594 7.11536 29.1314 6.68336 28.8914C6.25936 28.6434 5.78336 28.5194 5.25536 28.5194C4.36736 28.5194 3.63936 28.8034 3.07136 29.3714C2.51936 29.9314 2.24336 30.6514 2.24336 31.5314C2.24336 32.4114 2.51936 33.1314 3.07136 33.6914C3.63936 34.2594 4.36736 34.5434 5.25536 34.5434C5.78336 34.5434 6.26336 34.4234 6.69536 34.1834C7.12736 33.9354 7.45136 33.6034 7.66736 33.1874L8.86736 33.8714C8.52336 34.4794 8.02336 34.9714 7.36736 35.3474C6.73536 35.7074 6.03136 35.8874 5.25536 35.8874ZM14.6701 30.5834V29.7314H15.9661V35.7314H14.6701V34.8674C14.1821 35.5474 13.4821 35.8874 12.5701 35.8874C11.7461 35.8874 11.0421 35.5834 10.4581 34.9754C9.87411 34.3674 9.58211 33.6194 9.58211 32.7314C9.58211 31.8434 9.87411 31.0954 10.4581 30.4874C11.0421 29.8794 11.7461 29.5754 12.5701 29.5754C13.4821 29.5754 14.1821 29.9114 14.6701 30.5834ZM11.4181 34.1114C11.7781 34.4714 12.2301 34.6514 12.7741 34.6514C13.3181 34.6514 13.7701 34.4714 14.1301 34.1114C14.4901 33.7434 14.6701 33.2834 14.6701 32.7314C14.6701 32.1794 14.4901 31.7234 14.1301 31.3634C13.7701 30.9954 13.3181 30.8114 12.7741 30.8114C12.2301 30.8114 11.7781 30.9954 11.4181 31.3634C11.0581 31.7234 10.8781 32.1794 10.8781 32.7314C10.8781 33.2754 11.0581 33.7354 11.4181 34.1114ZM18.7727 29.7314V30.7394C19.1007 29.9954 19.7167 29.6234 20.6207 29.6234V31.0274C20.1327 30.9954 19.7007 31.1154 19.3247 31.3874C18.9567 31.6514 18.7727 32.0914 18.7727 32.7074V35.7314H17.4767V29.7314H18.7727ZM25.0786 29.7314V30.9794H23.5906V33.8594C23.5906 34.1074 23.6466 34.2874 23.7586 34.3994C23.8706 34.5034 24.0346 34.5634 24.2506 34.5794C24.4746 34.5874 24.7506 34.5834 25.0786 34.5674V35.7314C24.0866 35.8514 23.3746 35.7674 22.9426 35.4794C22.5106 35.1834 22.2946 34.6434 22.2946 33.8594V30.9794H21.1906V29.7314H22.2946V28.4354L23.5906 28.0514V29.7314H25.0786Z" fill="#181725"/>
<path d="M10.536 19.5629C9.88741 19.5629 9.26542 19.3053 8.80683 18.8467C8.34823 18.3881 8.0906 17.7661 8.0906 17.1175C8.0906 16.469 8.34823 15.847 8.80683 15.3884C9.26542 14.9298 9.88741 14.6722 10.536 14.6722C11.1845 14.6722 11.8065 14.9298 12.2651 15.3884C12.7237 15.847 12.9813 16.469 12.9813 17.1175C12.9813 17.7661 12.7237 18.3881 12.2651 18.8467C11.8065 19.3053 11.1845 19.5629 10.536 19.5629ZM19.0947 19.5629C18.4462 19.5629 17.8242 19.3053 17.3656 18.8467C16.907 18.3881 16.6494 17.7661 16.6494 17.1175C16.6494 16.469 16.907 15.847 17.3656 15.3884C17.8242 14.9298 18.4462 14.6722 19.0947 14.6722C19.7433 14.6722 20.3653 14.9298 20.8239 15.3884C21.2825 15.847 21.5401 16.469 21.5401 17.1175C21.5401 17.7661 21.2825 18.3881 20.8239 18.8467C20.3653 19.3053 19.7433 19.5629 19.0947 19.5629ZM3.15341 2.35122C2.84818 2.34137 2.55875 2.2132 2.34631 1.99381C2.13388 1.77441 2.01511 1.481 2.01511 1.17561C2.01511 0.870221 2.13388 0.576806 2.34631 0.357411C2.55875 0.138017 2.84818 0.0098448 3.15341 0L4.56071 0C5.66357 0 6.61727 0.765399 6.85691 1.84136L8.38893 8.73973C8.62858 9.81569 9.58227 10.5811 10.6851 10.5811H19.8699L21.633 3.52622H10.2071C9.9047 3.51242 9.6193 3.3826 9.41022 3.16375C9.20113 2.94491 9.08446 2.65389 9.08446 2.35122C9.08446 2.04855 9.20113 1.75753 9.41022 1.53868C9.6193 1.31984 9.9047 1.19002 10.2071 1.17622H21.633C21.9905 1.17611 22.3432 1.2575 22.6645 1.4142C22.9857 1.57089 23.267 1.79876 23.487 2.0805C23.7069 2.36223 23.8598 2.6904 23.9339 3.04007C24.008 3.38974 24.0013 3.7517 23.9145 4.09843L22.1514 11.1509C22.0243 11.6597 21.7307 12.1115 21.3173 12.4343C20.9039 12.7571 20.3944 12.9324 19.8699 12.9323H10.6851C9.61503 12.9325 8.57689 12.5676 7.74215 11.898C6.90741 11.2285 6.32601 10.2942 6.09396 9.24959L4.56071 2.35122H3.15341Z" fill="#181725"/>
</svg>
