<svg width="41" height="39" viewBox="0 0 41 39" fill="none" xmlns="http://www.w3.org/2000/svg">
<path d="M24.4699 14.0005C25.2578 14.0005 26.038 13.8453 26.766 13.5438C27.4939 13.2423 28.1554 12.8003 28.7125 12.2431C29.2697 11.686 29.7116 11.0246 30.0132 10.2966C30.3147 9.56865 30.4699 8.78843 30.4699 8.0005C30.4699 7.21257 30.3147 6.43236 30.0132 5.7044C29.7116 4.97645 29.2697 4.31501 28.7125 3.75786C28.1554 3.20071 27.4939 2.75875 26.766 2.45723C26.038 2.1557 25.2578 2.0005 24.4699 2.0005C22.8786 2.0005 21.3525 2.63264 20.2272 3.75786C19.102 4.88308 18.4699 6.4092 18.4699 8.0005C18.4699 9.5918 19.102 11.1179 20.2272 12.2431C21.3525 13.3684 22.8786 14.0005 24.4699 14.0005ZM30.7899 12.9065L34.3699 16.4865C34.4653 16.5788 34.5414 16.6892 34.5938 16.8113C34.6461 16.9333 34.6736 17.0645 34.6746 17.1973C34.6757 17.3301 34.6503 17.4618 34.5999 17.5846C34.5496 17.7075 34.4752 17.8191 34.3813 17.9129C34.2873 18.0067 34.1756 18.0809 34.0527 18.1311C33.9297 18.1813 33.798 18.2065 33.6653 18.2052C33.5325 18.204 33.4013 18.1763 33.2793 18.1238C33.1574 18.0713 33.0471 17.9951 32.9549 17.8995L29.3749 14.3195C27.7673 15.5674 25.7447 16.1557 23.7186 15.9647C21.6926 15.7737 19.8155 14.8178 18.4694 13.2916C17.1234 11.7653 16.4096 9.78345 16.4733 7.74943C16.5371 5.7154 17.3736 3.78213 18.8125 2.34315C20.2515 0.904173 22.1848 0.0676701 24.2188 0.00392902C26.2528 -0.0598121 28.2347 0.654 29.7609 2.00005C31.2872 3.34611 32.2431 5.22322 32.4341 7.24926C32.6251 9.2753 32.0367 11.298 30.7889 12.9055L30.7899 12.9065Z" fill="#53B175"/>
<rect x="6.32535" width="8.85499" height="2.39923" rx="1.19961" fill="#53B175"/>
<rect x="6.32535" y="7.43817" width="6.46414" height="2.39923" rx="1.19961" fill="#53B175"/>
<rect x="6.32535" y="14.8768" width="8.85499" height="2.39923" rx="1.19961" fill="#53B175"/>
<path d="M2.2532 30.8615V33.1295H5.9732V34.4495H0.873203V26.0495H5.9132V27.3695H2.2532V29.5535H5.6132V30.8615H2.2532ZM10.2725 31.3775L12.5165 34.4495H11.0165L9.52848 32.3975L8.02848 34.4495H6.51648L8.77248 31.3655L6.63648 28.4495H8.13648L9.51648 30.3455L10.8965 28.4495H12.4085L10.2725 31.3775ZM16.7829 28.2935C17.5989 28.2935 18.3029 28.6015 18.8949 29.2175C19.4789 29.8255 19.7709 30.5695 19.7709 31.4495C19.7709 32.3375 19.4789 33.0855 18.8949 33.6935C18.3109 34.3015 17.6069 34.6055 16.7829 34.6055C15.8789 34.6055 15.1789 34.2695 14.6829 33.5975V36.8495H13.3869V28.4495H14.6829V29.3135C15.1709 28.6335 15.8709 28.2935 16.7829 28.2935ZM15.2229 32.8295C15.5829 33.1895 16.0349 33.3695 16.5789 33.3695C17.1229 33.3695 17.5749 33.1895 17.9349 32.8295C18.2949 32.4615 18.4749 32.0015 18.4749 31.4495C18.4749 30.8975 18.2949 30.4415 17.9349 30.0815C17.5749 29.7135 17.1229 29.5295 16.5789 29.5295C16.0349 29.5295 15.5829 29.7135 15.2229 30.0815C14.8629 30.4415 14.6829 30.8975 14.6829 31.4495C14.6829 31.9935 14.8629 32.4535 15.2229 32.8295ZM22.2415 34.4495H20.9455V25.6895H22.2415V34.4495ZM28.8222 33.6935C28.2142 34.3015 27.4662 34.6055 26.5782 34.6055C25.6902 34.6055 24.9422 34.3015 24.3342 33.6935C23.7182 33.0775 23.4102 32.3295 23.4102 31.4495C23.4102 30.5695 23.7182 29.8215 24.3342 29.2055C24.9422 28.5975 25.6902 28.2935 26.5782 28.2935C27.4662 28.2935 28.2142 28.5975 28.8222 29.2055C29.4382 29.8215 29.7462 30.5695 29.7462 31.4495C29.7462 32.3295 29.4382 33.0775 28.8222 33.6935ZM24.7062 31.4495C24.7062 31.9935 24.8862 32.4455 25.2462 32.8055C25.6062 33.1655 26.0502 33.3455 26.5782 33.3455C27.1062 33.3455 27.5502 33.1655 27.9102 32.8055C28.2702 32.4455 28.4502 31.9935 28.4502 31.4495C28.4502 30.9055 28.2702 30.4535 27.9102 30.0935C27.5502 29.7335 27.1062 29.5535 26.5782 29.5535C26.0502 29.5535 25.6062 29.7335 25.2462 30.0935C24.8862 30.4535 24.7062 30.9055 24.7062 31.4495ZM32.2141 28.4495V29.4575C32.5421 28.7135 33.1581 28.3415 34.0621 28.3415V29.7455C33.5741 29.7135 33.1421 29.8335 32.7661 30.1055C32.3981 30.3695 32.2141 30.8095 32.2141 31.4255V34.4495H30.9181V28.4495H32.2141ZM40.5344 32.0015H35.7584C35.8544 32.4495 36.0704 32.7975 36.4064 33.0455C36.7504 33.2935 37.1744 33.4175 37.6784 33.4175C38.3584 33.4175 38.8744 33.1695 39.2264 32.6735L40.2944 33.2975C39.7104 34.1695 38.8344 34.6055 37.6664 34.6055C36.6984 34.6055 35.9104 34.3095 35.3024 33.7175C34.7024 33.1175 34.4024 32.3615 34.4024 31.4495C34.4024 30.5615 34.6984 29.8135 35.2904 29.2055C35.8744 28.5975 36.6344 28.2935 37.5704 28.2935C38.4424 28.2935 39.1624 28.6015 39.7304 29.2175C40.2984 29.8335 40.5824 30.5815 40.5824 31.4615C40.5824 31.6215 40.5664 31.8015 40.5344 32.0015ZM35.7464 30.9455H39.2744C39.1864 30.4735 38.9864 30.1095 38.6744 29.8535C38.3704 29.5975 37.9984 29.4695 37.5584 29.4695C37.0784 29.4695 36.6784 29.6015 36.3584 29.8655C36.0384 30.1295 35.8344 30.4895 35.7464 30.9455Z" fill="#53B175"/>
</svg>
