<svg width="46" height="43" viewBox="0 0 46 43" fill="none" xmlns="http://www.w3.org/2000/svg">
<path d="M19.0299 12.07C19.1708 12.0175 19.3222 11.9903 19.4753 11.9898C19.6284 11.9893 19.7801 12.0156 19.9214 12.0672C20.0626 12.1188 20.1906 12.1945 20.2977 12.29C20.4049 12.3855 20.489 12.4988 20.5451 12.6231C20.6013 12.7475 20.6283 12.8804 20.6246 13.014C20.6209 13.1477 20.5865 13.2793 20.5235 13.4011C20.4605 13.523 20.3702 13.6325 20.2579 13.7234C20.1456 13.8142 20.0135 13.8845 19.8696 13.93C19.1039 14.1934 18.4467 14.6519 17.9836 15.2458C17.5204 15.8397 17.2728 16.5415 17.2728 17.26V19C17.2728 19.2652 17.3935 19.5196 17.6083 19.7071C17.8231 19.8946 18.1145 20 18.4183 20H27.5818C27.8856 20 28.177 19.8946 28.3918 19.7071C28.6066 19.5196 28.7273 19.2652 28.7273 19V17.353C28.7274 16.6115 28.4694 15.8874 27.9874 15.2768C27.5055 14.6662 26.8224 14.1979 26.0286 13.934C25.8838 13.8901 25.7505 13.8213 25.6367 13.7316C25.5228 13.6419 25.4308 13.5332 25.366 13.4119C25.3012 13.2905 25.265 13.1591 25.2594 13.0253C25.2539 12.8916 25.2792 12.7582 25.3338 12.6331C25.3884 12.508 25.4712 12.3938 25.5773 12.2972C25.6835 12.2006 25.8107 12.1235 25.9516 12.0706C26.0924 12.0177 26.244 11.9901 26.3973 11.9893C26.5507 11.9885 26.7026 12.0146 26.8442 12.066C28.0716 12.4742 29.1281 13.1983 29.8735 14.1425C30.6189 15.0867 31.0181 16.2063 31.0182 17.353V19C31.0182 19.7956 30.6561 20.5587 30.0117 21.1213C29.3673 21.6839 28.4932 22 27.5818 22H18.4183C17.5069 22 16.6329 21.6839 15.9884 21.1213C15.344 20.5587 14.9819 19.7956 14.9819 19V17.26C14.9821 16.1402 15.3683 15.0463 16.0902 14.1206C16.8122 13.195 17.8365 12.4805 19.0299 12.07ZM23.0001 2C24.2152 2 25.3806 2.42143 26.2399 3.17157C27.0991 3.92172 27.5818 4.93913 27.5818 6V8C27.5818 9.06087 27.0991 10.0783 26.2399 10.8284C25.3806 11.5786 24.2152 12 23.0001 12C21.7849 12 20.6195 11.5786 19.7602 10.8284C18.901 10.0783 18.4183 9.06087 18.4183 8V6C18.4183 4.93913 18.901 3.92172 19.7602 3.17157C20.6195 2.42143 21.7849 2 23.0001 2ZM23.0001 4C22.3925 4 21.8098 4.21071 21.3801 4.58579C20.9505 4.96086 20.7092 5.46957 20.7092 6V8C20.7092 8.53043 20.9505 9.03914 21.3801 9.41421C21.8098 9.78929 22.3925 10 23.0001 10C23.6076 10 24.1903 9.78929 24.62 9.41421C25.0496 9.03914 25.2909 8.53043 25.2909 8V6C25.2909 5.46957 25.0496 4.96086 24.62 4.58579C24.1903 4.21071 23.6076 4 23.0001 4Z" fill="#181725"/>
<path d="M7.83711 38.1685H6.34911L5.76111 36.4765H2.18511L1.59711 38.1685H0.0971094L3.14511 29.7685H4.80111L7.83711 38.1685ZM3.97311 31.3885L2.64111 35.1805H5.30511L3.97311 31.3885ZM11.336 38.3245C10.432 38.3245 9.67605 38.0205 9.06805 37.4125C8.46805 36.7965 8.16805 36.0485 8.16805 35.1685C8.16805 34.2725 8.46805 33.5245 9.06805 32.9245C9.67605 32.3165 10.432 32.0125 11.336 32.0125C11.92 32.0125 12.452 32.1525 12.932 32.4325C13.412 32.7125 13.772 33.0885 14.012 33.5605L12.896 34.2085C12.76 33.9205 12.552 33.6965 12.272 33.5365C12 33.3685 11.684 33.2845 11.324 33.2845C10.796 33.2845 10.352 33.4645 9.99205 33.8245C9.64005 34.1925 9.46405 34.6405 9.46405 35.1685C9.46405 35.6965 9.64005 36.1445 9.99205 36.5125C10.352 36.8725 10.796 37.0525 11.324 37.0525C11.676 37.0525 11.992 36.9725 12.272 36.8125C12.56 36.6445 12.776 36.4165 12.92 36.1285L14.036 36.7645C13.78 37.2445 13.408 37.6245 12.92 37.9045C12.44 38.1845 11.912 38.3245 11.336 38.3245ZM17.711 38.3245C16.807 38.3245 16.051 38.0205 15.443 37.4125C14.843 36.7965 14.543 36.0485 14.543 35.1685C14.543 34.2725 14.843 33.5245 15.443 32.9245C16.051 32.3165 16.807 32.0125 17.711 32.0125C18.295 32.0125 18.827 32.1525 19.307 32.4325C19.787 32.7125 20.147 33.0885 20.387 33.5605L19.271 34.2085C19.135 33.9205 18.927 33.6965 18.647 33.5365C18.375 33.3685 18.059 33.2845 17.699 33.2845C17.171 33.2845 16.727 33.4645 16.367 33.8245C16.015 34.1925 15.839 34.6405 15.839 35.1685C15.839 35.6965 16.015 36.1445 16.367 36.5125C16.727 36.8725 17.171 37.0525 17.699 37.0525C18.051 37.0525 18.367 36.9725 18.647 36.8125C18.935 36.6445 19.151 36.4165 19.295 36.1285L20.411 36.7645C20.155 37.2445 19.783 37.6245 19.295 37.9045C18.815 38.1845 18.287 38.3245 17.711 38.3245ZM26.33 37.4125C25.722 38.0205 24.974 38.3245 24.086 38.3245C23.198 38.3245 22.45 38.0205 21.842 37.4125C21.226 36.7965 20.918 36.0485 20.918 35.1685C20.918 34.2885 21.226 33.5405 21.842 32.9245C22.45 32.3165 23.198 32.0125 24.086 32.0125C24.974 32.0125 25.722 32.3165 26.33 32.9245C26.946 33.5405 27.254 34.2885 27.254 35.1685C27.254 36.0485 26.946 36.7965 26.33 37.4125ZM22.214 35.1685C22.214 35.7125 22.394 36.1645 22.754 36.5245C23.114 36.8845 23.558 37.0645 24.086 37.0645C24.614 37.0645 25.058 36.8845 25.418 36.5245C25.778 36.1645 25.958 35.7125 25.958 35.1685C25.958 34.6245 25.778 34.1725 25.418 33.8125C25.058 33.4525 24.614 33.2725 24.086 33.2725C23.558 33.2725 23.114 33.4525 22.754 33.8125C22.394 34.1725 22.214 34.6245 22.214 35.1685ZM32.4699 35.3845V32.1685H33.7659V38.1685H32.4699V37.4005C32.0699 38.0165 31.4499 38.3245 30.6099 38.3245C29.9139 38.3245 29.3539 38.1045 28.9299 37.6645C28.5139 37.2165 28.3059 36.6125 28.3059 35.8525V32.1685H29.6019V35.7205C29.6019 36.1685 29.7219 36.5125 29.9619 36.7525C30.2019 36.9925 30.5299 37.1125 30.9459 37.1125C31.4179 37.1125 31.7899 36.9685 32.0619 36.6805C32.3339 36.3845 32.4699 35.9525 32.4699 35.3845ZM38.4374 32.0125C39.1334 32.0125 39.6894 32.2365 40.1054 32.6845C40.5294 33.1245 40.7414 33.7245 40.7414 34.4845V38.1685H39.4454V34.6165C39.4454 34.1685 39.3254 33.8245 39.0854 33.5845C38.8454 33.3445 38.5174 33.2245 38.1014 33.2245C37.6294 33.2245 37.2574 33.3725 36.9854 33.6685C36.7134 33.9565 36.5774 34.3845 36.5774 34.9525V38.1685H35.2814V32.1685H36.5774V32.9365C36.9774 32.3205 37.5974 32.0125 38.4374 32.0125ZM45.4849 32.1685V33.4165H43.9969V36.2965C43.9969 36.5445 44.0529 36.7245 44.1649 36.8365C44.2769 36.9405 44.4409 37.0005 44.6569 37.0165C44.8809 37.0245 45.1569 37.0205 45.4849 37.0045V38.1685C44.4929 38.2885 43.7809 38.2045 43.3489 37.9165C42.9169 37.6205 42.7009 37.0805 42.7009 36.2965V33.4165H41.5969V32.1685H42.7009V30.8725L43.9969 30.4885V32.1685H45.4849Z" fill="#181725"/>
</svg>
