<svg width="53" height="42" viewBox="0 0 53 42" fill="none" xmlns="http://www.w3.org/2000/svg">
<g clip-path="url(#clip0_346_479)">
<path d="M18.6942 11.0097L26.5183 18.8338L34.3424 11.0097C35.0342 10.3179 35.4228 9.37973 35.4228 8.40145C35.4228 7.42317 35.0342 6.48496 34.3424 5.79321C33.9999 5.4507 33.5933 5.179 33.1457 4.99363C32.6982 4.80826 32.2186 4.71285 31.7342 4.71285C30.7559 4.71285 29.8177 5.10147 29.1259 5.79321L26.5183 8.40084L23.9107 5.79444C23.2172 5.11198 22.2821 4.7312 21.3091 4.73504C20.3361 4.73889 19.4041 5.12705 18.716 5.81498C18.0279 6.50291 17.6395 7.43487 17.6354 8.40786C17.6313 9.38084 18.0119 10.316 18.6942 11.0097ZM25.6491 4.05357L26.5183 4.92278L27.3875 4.05357C27.9574 3.47865 28.6353 3.02196 29.3822 2.70971C30.129 2.39747 30.9302 2.23582 31.7397 2.23405C32.5493 2.23227 33.3512 2.39041 34.0994 2.69938C34.8476 3.00836 35.5275 3.46207 36.0999 4.03449C36.6723 4.60691 37.126 5.28675 37.435 6.03499C37.744 6.78323 37.9021 7.58513 37.9004 8.39465C37.8986 9.20417 37.7369 10.0054 37.4247 10.7522C37.1124 11.4991 36.6557 12.177 36.0808 12.7469L27.3888 21.4402C27.2746 21.5545 27.139 21.6452 26.9897 21.707C26.8405 21.7689 26.6805 21.8008 26.5189 21.8008C26.3574 21.8008 26.1974 21.7689 26.0481 21.707C25.8989 21.6452 25.7633 21.5545 25.6491 21.4402L16.9558 12.7481C16.3731 12.18 15.9089 11.5019 15.5903 10.7531C15.2717 10.0042 15.1049 9.19955 15.0997 8.38576C15.0945 7.57196 15.2509 6.76523 15.5599 6.01237C15.8689 5.2595 16.3243 4.57548 16.8997 3.99999C17.4752 3.42449 18.1591 2.96899 18.9119 2.65988C19.6648 2.35078 20.4715 2.19424 21.2853 2.19934C22.0991 2.20444 22.9037 2.37108 23.6526 2.68959C24.4015 3.0081 25.0797 3.47214 25.6479 4.0548L25.6491 4.05357Z" fill="#181725"/>
</g>
<path d="M6.24438 29.2865V30.6065H2.70438V32.9585H6.12438V34.2785H2.70438V37.6865H1.32438V29.2865H6.24438ZM12.2033 32.5385V31.6865H13.4993V37.6865H12.2033V36.8225C11.7153 37.5025 11.0153 37.8425 10.1033 37.8425C9.27931 37.8425 8.57531 37.5385 7.99131 36.9305C7.40731 36.3225 7.11531 35.5745 7.11531 34.6865C7.11531 33.7985 7.40731 33.0505 7.99131 32.4425C8.57531 31.8345 9.27931 31.5305 10.1033 31.5305C11.0153 31.5305 11.7153 31.8665 12.2033 32.5385ZM8.95131 36.0665C9.31131 36.4265 9.76331 36.6065 10.3073 36.6065C10.8513 36.6065 11.3033 36.4265 11.6633 36.0665C12.0233 35.6985 12.2033 35.2385 12.2033 34.6865C12.2033 34.1345 12.0233 33.6785 11.6633 33.3185C11.3033 32.9505 10.8513 32.7665 10.3073 32.7665C9.76331 32.7665 9.31131 32.9505 8.95131 33.3185C8.59131 33.6785 8.41131 34.1345 8.41131 34.6865C8.41131 35.2305 8.59131 35.6905 8.95131 36.0665ZM17.4099 36.2465L19.0779 31.6865H20.4939L18.1539 37.6865H16.6539L14.3139 31.6865H15.7299L17.4099 36.2465ZM26.1562 36.9305C25.5482 37.5385 24.8002 37.8425 23.9122 37.8425C23.0242 37.8425 22.2762 37.5385 21.6682 36.9305C21.0522 36.3145 20.7442 35.5665 20.7442 34.6865C20.7442 33.8065 21.0522 33.0585 21.6682 32.4425C22.2762 31.8345 23.0242 31.5305 23.9122 31.5305C24.8002 31.5305 25.5482 31.8345 26.1562 32.4425C26.7722 33.0585 27.0802 33.8065 27.0802 34.6865C27.0802 35.5665 26.7722 36.3145 26.1562 36.9305ZM22.0402 34.6865C22.0402 35.2305 22.2202 35.6825 22.5802 36.0425C22.9402 36.4025 23.3842 36.5825 23.9122 36.5825C24.4402 36.5825 24.8842 36.4025 25.2442 36.0425C25.6042 35.6825 25.7842 35.2305 25.7842 34.6865C25.7842 34.1425 25.6042 33.6905 25.2442 33.3305C24.8842 32.9705 24.4402 32.7905 23.9122 32.7905C23.3842 32.7905 22.9402 32.9705 22.5802 33.3305C22.2202 33.6905 22.0402 34.1425 22.0402 34.6865ZM32.2961 34.9025V31.6865H33.5921V37.6865H32.2961V36.9185C31.8961 37.5345 31.2761 37.8425 30.4361 37.8425C29.7401 37.8425 29.1801 37.6225 28.7561 37.1825C28.3401 36.7345 28.1321 36.1305 28.1321 35.3705V31.6865H29.4281V35.2385C29.4281 35.6865 29.5481 36.0305 29.7881 36.2705C30.0281 36.5105 30.3561 36.6305 30.7721 36.6305C31.2441 36.6305 31.6161 36.4865 31.8881 36.1985C32.1601 35.9025 32.2961 35.4705 32.2961 34.9025ZM36.4036 31.6865V32.6945C36.7316 31.9505 37.3476 31.5785 38.2516 31.5785V32.9825C37.7636 32.9505 37.3316 33.0705 36.9556 33.3425C36.5876 33.6065 36.4036 34.0465 36.4036 34.6625V37.6865H35.1076V31.6865H36.4036ZM40.4331 30.5465C40.2731 30.7065 40.0811 30.7865 39.8571 30.7865C39.6331 30.7865 39.4371 30.7065 39.2691 30.5465C39.1091 30.3785 39.0291 30.1825 39.0291 29.9585C39.0291 29.7345 39.1091 29.5425 39.2691 29.3825C39.4291 29.2145 39.6251 29.1305 39.8571 29.1305C40.0891 29.1305 40.2851 29.2145 40.4451 29.3825C40.6051 29.5425 40.6851 29.7345 40.6851 29.9585C40.6851 30.1825 40.6011 30.3785 40.4331 30.5465ZM40.5051 37.6865H39.2091V31.6865H40.5051V37.6865ZM45.3579 31.6865V32.9345H43.8699V35.8145C43.8699 36.0625 43.9259 36.2425 44.0379 36.3545C44.1499 36.4585 44.3139 36.5185 44.5299 36.5345C44.7539 36.5425 45.0299 36.5385 45.3579 36.5225V37.6865C44.3659 37.8065 43.6539 37.7225 43.2219 37.4345C42.7899 37.1385 42.5739 36.5985 42.5739 35.8145V32.9345H41.4699V31.6865H42.5739V30.3905L43.8699 30.0065V31.6865H45.3579ZM52.0833 35.2385H47.3073C47.4033 35.6865 47.6193 36.0345 47.9553 36.2825C48.2993 36.5305 48.7233 36.6545 49.2273 36.6545C49.9073 36.6545 50.4233 36.4065 50.7753 35.9105L51.8433 36.5345C51.2593 37.4065 50.3833 37.8425 49.2153 37.8425C48.2473 37.8425 47.4593 37.5465 46.8513 36.9545C46.2513 36.3545 45.9513 35.5985 45.9513 34.6865C45.9513 33.7985 46.2473 33.0505 46.8393 32.4425C47.4233 31.8345 48.1833 31.5305 49.1193 31.5305C49.9913 31.5305 50.7113 31.8385 51.2793 32.4545C51.8473 33.0705 52.1313 33.8185 52.1313 34.6985C52.1313 34.8585 52.1153 35.0385 52.0833 35.2385ZM47.2952 34.1825H50.8233C50.7353 33.7105 50.5353 33.3465 50.2233 33.0905C49.9193 32.8345 49.5473 32.7065 49.1073 32.7065C48.6273 32.7065 48.2273 32.8385 47.9073 33.1025C47.5873 33.3665 47.3833 33.7265 47.2952 34.1825Z" fill="#181725"/>
<defs>
<clipPath id="clip0_346_479">
<rect width="24" height="24" fill="white" transform="translate(14)"/>
</clipPath>
</defs>
</svg>
